<svg xmlns="http://www.w3.org/2000/svg" width="46" height="46" viewBox="0 0 46 46"><g transform="translate(-848 -753.003)"><path d="M-2889-1072a22.849,22.849,0,0,1-16.263-6.736A22.849,22.849,0,0,1-2912-1095a22.85,22.85,0,0,1,6.736-16.264A22.848,22.848,0,0,1-2889-1118a22.85,22.85,0,0,1,16.264,6.737A22.85,22.85,0,0,1-2866-1095a22.849,22.849,0,0,1-6.737,16.263A22.851,22.851,0,0,1-2889-1072Zm-7.382-31.227a1.848,1.848,0,0,0-1.846,1.846v11.073a1.848,1.848,0,0,0,1.846,1.846h12.918l3.691,3.691-.009-16.609a1.843,1.843,0,0,0-1.836-1.846Zm12.918,11.074h-11.073V-1094h11.073v1.845Zm0-2.768h-11.073v-1.846h11.073v1.845Zm0-2.768h-11.073v-1.846h11.073v1.845Z" transform="translate(3760 1871)"/></g></svg>