<svg xmlns="http://www.w3.org/2000/svg" width="99" height="52" viewBox="0 0 99 52">
  <g id="Group_29" data-name="Group 29" transform="translate(-50 -23)">
    <text id="SAMPLE" transform="translate(50 46)" fill="#081a33" font-size="24" font-family="SFProText-Bold, SF Pro Text" font-weight="700" letter-spacing="-0.019em"><tspan x="0" y="0">SAMPLE</tspan></text>
    <text id="TASK" transform="translate(50 69)" fill="#081a33" font-size="24" font-family="SFProText-Bold, SF Pro Text" font-weight="700" letter-spacing="-0.019em"><tspan x="0" y="0">TASK</tspan></text>
    <g id="Icon_feather-check-circle" data-name="Icon feather-check-circle" transform="translate(115.036 52.482)">
      <path id="Path_4" data-name="Path 4" d="M10.746,20a9.253,9.253,0,1,1,3.77-17.7,1.5,1.5,0,0,1-1.221,2.74A6.251,6.251,0,1,0,17,10.745v-.712a1.5,1.5,0,0,1,3,0v.713A9.265,9.265,0,0,1,10.746,20Z" transform="translate(-3 -2.991)" fill="#da7f14"/>
      <path id="Path_5" data-name="Path 5" d="M15.825,15.259a1.5,1.5,0,0,1-1.061-.439l-2.325-2.325a1.5,1.5,0,0,1,2.121-2.121l1.264,1.264,6.69-6.7a1.5,1.5,0,0,1,2.122,2.12l-7.751,7.759a1.5,1.5,0,0,1-1.061.44Z" transform="translate(-8.074 -4.445)" fill="#da7f14"/>
    </g>
  </g>
</svg>
