<svg xmlns="http://www.w3.org/2000/svg" width="46" height="46" viewBox="0 0 46 46"><g transform="translate(-668 -389.003)"><path d="M-3069-1369a22.849,22.849,0,0,1-16.263-6.736A22.849,22.849,0,0,1-3092-1392a22.851,22.851,0,0,1,6.736-16.264A22.848,22.848,0,0,1-3069-1415a22.85,22.85,0,0,1,16.264,6.737A22.85,22.85,0,0,1-3046-1392a22.848,22.848,0,0,1-6.737,16.263A22.85,22.85,0,0,1-3069-1369Zm0-34.236a11.165,11.165,0,0,0-4.374.883,11.219,11.219,0,0,0-3.571,2.407,11.221,11.221,0,0,0-2.407,3.571,11.175,11.175,0,0,0-.883,4.374,11.175,11.175,0,0,0,.883,4.374,11.2,11.2,0,0,0,2.407,3.571,11.2,11.2,0,0,0,3.571,2.408,11.15,11.15,0,0,0,4.374.884,11.157,11.157,0,0,0,4.374-.884,11.18,11.18,0,0,0,3.571-2.408,11.191,11.191,0,0,0,2.407-3.571,11.173,11.173,0,0,0,.884-4.374,11.173,11.173,0,0,0-.884-4.374,11.214,11.214,0,0,0-2.407-3.571,11.2,11.2,0,0,0-3.571-2.407A11.172,11.172,0,0,0-3069-1403.233Zm0,20.429a9.2,9.2,0,0,1-9.193-9.194,9.2,9.2,0,0,1,9.193-9.193,9.2,9.2,0,0,1,9.193,9.193A9.2,9.2,0,0,1-3069-1382.8Zm0-16.343a1.023,1.023,0,0,0-1.021,1.021V-1392a1.015,1.015,0,0,0,.565.914l4.086,2.043a1,1,0,0,0,.455.108,1.016,1.016,0,0,0,.915-.564,1.014,1.014,0,0,0,.056-.78,1.015,1.015,0,0,0-.512-.591l-3.522-1.76v-5.5A1.023,1.023,0,0,0-3069-1399.147Z" transform="translate(3760 1804)"/></g></svg>