<svg xmlns="http://www.w3.org/2000/svg" width="46" height="46" viewBox="0 0 46 46"><path d="M1010.5-67.5a22.85,22.85,0,0,1-16.264-6.737A22.85,22.85,0,0,1,987.5-90.5a22.848,22.848,0,0,1,6.737-16.263A22.85,22.85,0,0,1,1010.5-113.5a22.849,22.849,0,0,1,16.263,6.737A22.849,22.849,0,0,1,1033.5-90.5a22.85,22.85,0,0,1-6.736,16.264A22.848,22.848,0,0,1,1010.5-67.5Zm3.585-19.949h0l-1.862,1.863,5.6,5.586,8.679-8.69-1.863-1.862-6.816,6.828-3.737-3.725Zm-13.657,0v2.483h9.932v-2.483h-9.932Zm0-4.965v2.482h14.9v-2.482Zm0-4.966V-94.9h14.9v-2.483Z" transform="translate(-987.5 113.5)"/></svg>