<svg xmlns="http://www.w3.org/2000/svg" width="50.999" height="50.999" viewBox="0 0 50.999 50.999">
  <path id="Icon_awesome-user-circle" data-name="Icon awesome-user-circle" d="M25.5.563A25.5,25.5,0,1,0,51,26.062,25.5,25.5,0,0,0,25.5.563Zm0,9.871a9.048,9.048,0,1,1-9.048,9.048A9.048,9.048,0,0,1,25.5,10.433Zm0,35.371a19.7,19.7,0,0,1-15.063-7.012,11.464,11.464,0,0,1,10.128-6.149,2.516,2.516,0,0,1,.73.113,13.614,13.614,0,0,0,4.205.709,13.562,13.562,0,0,0,4.205-.709,2.516,2.516,0,0,1,.73-.113,11.464,11.464,0,0,1,10.128,6.149A19.7,19.7,0,0,1,25.5,45.8Z" transform="translate(0 -0.563)" fill="#cbd5e0"/>
</svg>
